<?xml version="1.0" standalone="no"?>
<!DOCTYPE svg PUBLIC "-//W3C//DTD SVG 20010904//EN"
 "http://www.w3.org/TR/2001/REC-SVG-20010904/DTD/svg10.dtd">
<svg version="1.0" xmlns="http://www.w3.org/2000/svg"
 width="192.000000pt" height="192.000000pt" viewBox="0 0 192.000000 192.000000"
 preserveAspectRatio="xMidYMid meet">
<metadata>
Created by potrace 1.14, written by Peter Selinger 2001-2017
</metadata>
<g transform="translate(0.000000,192.000000) scale(0.100000,-0.100000)"
fill="#000000" stroke="none">
<path d="M880 1542 c-82 -22 -146 -59 -211 -124 -58 -58 -116 -167 -125 -239
l-6 -46 -60 -11 c-33 -6 -81 -21 -106 -34 -65 -31 -148 -116 -180 -185 -24
-51 -27 -70 -27 -158 0 -83 4 -108 23 -149 50 -110 148 -193 259 -221 53 -14
132 -15 555 -13 l493 3 55 26 c78 37 131 87 171 161 32 59 34 69 34 158 0 83
-3 102 -27 150 -47 95 -143 175 -235 195 -32 6 -33 8 -33 60 0 61 -29 163 -63
219 -40 64 -125 142 -190 174 -111 54 -211 64 -327 34z m187 -474 c-11 -43
-107 -502 -107 -510 0 -4 -25 -8 -56 -8 -48 0 -55 2 -50 18 3 9 28 131 57 270
l53 252 54 0 c51 0 54 -1 49 -22z m-302 -198 l-55 -55 52 -53 53 -52 -35 -35
-35 -35 -90 90 -90 90 90 90 89 90 38 -37 38 -37 -55 -56z m500 -140 l-90 -90
-35 35 -34 35 52 53 52 53 -55 54 -55 54 37 38 37 38 91 -90 90 -90 -90 -90z"/>
</g>
</svg>
